<?xml version="1.0" standalone="no"?>
<!DOCTYPE svg PUBLIC "-//W3C//DTD SVG 20010904//EN"
 "http://www.w3.org/TR/2001/REC-SVG-20010904/DTD/svg10.dtd">
<svg version="1.0" xmlns="http://www.w3.org/2000/svg"
 width="475.000000pt" height="141.000000pt" viewBox="0 0 475.000000 141.000000"
 preserveAspectRatio="xMidYMid meet">

<g transform="translate(0.000000,141.000000) scale(0.100000,-0.100000)"
fill="#000000" stroke="none">
<path d="M4293 1379 c-115 -22 -221 -106 -268 -212 -90 -200 6 -430 212 -507
86 -32 206 -26 287 15 162 82 249 267 201 430 -41 144 -147 243 -293 274 -59
12 -79 12 -139 0z m-23 -225 c30 -18 60 -71 60 -106 0 -44 -25 -102 -58 -134
-33 -32 -116 -69 -133 -58 -19 11 -9 42 16 48 13 3 32 20 40 36 14 28 14 30
-2 30 -22 0 -57 28 -72 57 -20 39 -13 73 23 109 39 39 80 45 126 18z m307 -17
c14 -13 28 -41 33 -63 22 -97 -48 -191 -162 -218 -25 -6 -28 -4 -28 19 0 14 5
25 12 25 16 0 58 41 58 57 0 7 -7 13 -16 13 -8 0 -29 13 -45 29 -43 43 -40 92
6 138 32 32 40 35 77 30 25 -3 51 -15 65 -30z"/>
<path d="M309 767 c-153 -57 -279 -259 -279 -445 0 -136 117 -209 238 -151 47
23 100 87 109 131 3 17 13 28 30 33 32 8 73 49 73 73 0 17 -9 18 -101 18 -88
-1 -102 -4 -115 -20 -19 -27 -18 -30 16 -43 26 -10 30 -16 30 -48 0 -29 -8
-45 -35 -72 -30 -30 -39 -34 -77 -31 -39 3 -45 7 -62 42 -17 35 -18 46 -8 113
28 175 157 353 258 353 64 0 50 -77 -25 -142 -46 -39 -49 -48 -23 -71 28 -26
58 -20 96 17 49 49 72 116 58 164 -23 77 -100 110 -183 79z"/>
<path d="M2450 763 c-96 -34 -204 -176 -231 -304 -23 -108 10 -209 70 -209 48
0 58 23 33 74 -12 24 -22 57 -22 75 0 41 34 143 64 189 37 59 107 122 149 134
33 10 41 9 65 -9 25 -19 27 -25 27 -96 -1 -68 -5 -84 -45 -164 -58 -119 -148
-210 -238 -243 -46 -17 -62 -28 -62 -41 0 -16 8 -19 49 -19 65 0 104 -15 178
-67 122 -86 220 -96 252 -26 14 31 6 46 -19 33 -10 -5 -27 -10 -38 -10 -18 0
-33 7 -174 83 l-67 36 52 39 c127 96 220 278 203 396 -19 122 -118 174 -246
129z"/>
<path d="M1062 620 c-23 -50 -31 -59 -52 -60 -48 0 -68 -43 -26 -54 l24 -6
-30 -92 c-17 -53 -30 -118 -31 -151 -2 -53 1 -61 27 -84 24 -21 37 -24 69 -20
46 6 85 32 107 70 21 37 6 44 -39 19 -95 -54 -108 -4 -43 173 l29 80 45 6 c55
8 88 25 88 44 0 11 -13 15 -50 15 -27 0 -50 2 -50 4 0 2 7 20 15 41 21 49 12
75 -26 75 -27 0 -33 -6 -57 -60z"/>
<path d="M3763 620 c-21 -46 -32 -60 -48 -60 -12 0 -30 -7 -41 -15 -19 -15
-19 -15 0 -30 10 -8 23 -16 28 -17 4 -2 -3 -37 -17 -78 -15 -41 -29 -107 -32
-147 -5 -67 -4 -73 20 -97 32 -32 79 -34 127 -5 41 25 59 47 60 72 0 21 -1 21
-49 -4 -95 -49 -103 10 -30 208 18 48 23 53 50 53 41 0 99 26 99 44 0 12 -12
16 -51 16 -45 0 -50 2 -44 18 24 57 28 71 22 86 -4 10 -18 16 -36 16 -27 0
-33 -6 -58 -60z"/>
<path d="M694 551 c-153 -71 -228 -306 -120 -376 77 -51 246 -9 246 60 0 35
-12 37 -54 8 -45 -30 -104 -40 -128 -21 -10 7 -20 27 -24 44 -6 31 -6 31 48
38 70 9 152 49 180 89 31 43 32 118 2 148 -31 30 -98 35 -150 10z m91 -61 c13
-41 -39 -106 -107 -134 -21 -9 -40 -16 -43 -16 -12 0 -4 33 19 78 45 88 114
126 131 72z"/>
<path d="M1624 540 c-91 -51 -154 -155 -155 -253 -1 -59 20 -110 50 -127 49
-26 122 3 160 63 l21 32 0 -26 c0 -37 36 -79 66 -79 32 0 80 25 88 45 12 32 6
40 -31 40 l-38 0 2 41 c1 25 22 87 52 155 38 85 48 116 39 126 -16 19 -52 16
-73 -7 -17 -19 -18 -19 -43 0 -35 28 -78 25 -138 -10z m121 -40 c17 -19 17
-22 -5 -81 -45 -119 -127 -220 -166 -205 -14 5 -16 18 -12 74 7 98 54 182 123
220 29 16 40 15 60 -8z"/>
<path d="M2802 554 c-22 -15 -22 -17 -7 -35 20 -21 17 -29 -49 -189 -41 -99
-43 -118 -15 -154 42 -53 104 -27 198 84 30 36 51 56 47 45 -5 -11 -11 -41
-14 -68 -6 -65 16 -91 73 -84 66 9 107 80 43 75 -33 -3 -33 -3 -32 42 0 32 16
79 53 160 49 108 51 115 34 128 -36 26 -55 10 -123 -105 -100 -166 -176 -251
-202 -225 -7 7 4 44 36 117 58 133 69 177 49 204 -17 25 -59 27 -91 5z"/>
<path d="M3345 546 c-140 -65 -211 -281 -121 -365 33 -31 95 -38 150 -17 159
61 238 328 116 391 -41 21 -87 19 -145 -9z m111 -52 c24 -94 -73 -294 -143
-294 -73 0 -37 190 55 288 38 41 79 44 88 6z"/>
<path d="M4083 549 c-91 -45 -163 -161 -163 -262 0 -51 3 -61 34 -95 34 -36
36 -37 108 -37 58 0 80 4 109 23 40 24 52 49 37 76 -9 16 -11 16 -27 2 -23
-21 -85 -46 -114 -46 -31 0 -57 29 -57 63 0 21 5 27 22 27 57 0 142 35 185 75
39 38 43 46 43 89 0 94 -81 133 -177 85z m81 -35 c10 -4 16 -18 16 -40 0 -26
-9 -43 -39 -73 -35 -35 -107 -69 -119 -56 -3 3 10 34 28 71 21 42 43 72 63 85
37 22 31 21 51 13z"/>
</g>
</svg>
